<svg width="138" height="40" xmlns="http://www.w3.org/2000/svg" xml:space="preserve" version="1.1">

 <g>
  <title>Layer 1</title>
  <path id="svg_1" fill="#800406" d="m4.85001,4.85c0,0 0.8,-0.1 1.7,0.2c0,0 0.5,0.3 1.7,0c0,0 3.4,-1.4 3.4,-1.6c0,0 1.3,-0.1 1.5,-0.6c0,0 0.2,-1.1 0.4,-1.6c0,0 0.4,-0.9 1.3,-0.2c0,0 0.9,1.2 1.1,2.2c0,0 0.2,1.1 -0.2,2c0,0 -3.6,2.4 -4.7,3.1c0,0 -1.3,1 0,1.8c0,0 0.7,0.5 1.1,0.8c0,0 0.7,0.8 -0.1,1.8c0,0 -1.1,0.5 -1.3,1.1c0,0 0,1.1 0.8,1.5c0,0 0.9,1.7 1,2c0,0 0.7,1.5 -0.3,2.1c0,0 -1,0.7 -1.2,1.2c0,0 -0.3,0.6 0.9,0.6c0,0 0.9,-0.4 1.9,-0.5c0,0 1.7,0.2 0.8,1.3s0,-0.2 0,-0.2s-1.3,1.8 -2.1,2.7c-0.8,0.9 0,-0.1 0,-0.1s-0.1,0.5 0.3,0.6c0,0 2.2,2.1 2.8,3.9c0,0 0.2,1.8 -1.9,0.8c0,0 -1.3,-2.4 -1.7,-3.2c0,0 -0.8,-0.5 -1.1,-0.1c0,0 -1.7,2.2 -1.9,3.5c0,0 -1.4,0.9 -1.1,-1c0,0 1.3,-2.1 3,-4c0,0 0.9,-0.7 0.7,-1.3c0,0 -0.5,-0.6 -1,0.1c0,0 -3.8,3.1 -6.9,5.5c0,0 -2,0.6 -2.8,-1.7c0,0 -0.6,-0.4 3.5,-2.4c0,0 2.1,-1.7 2.5,-3c0,0 0.8,-1.5 2,-3.2c0,0 0.5,-1.4 -0.9,-0.9c0,0 -0.7,0.5 -0.4,-2.6c0,0 -0.7,-0.4 -1.1,0c0,0 -2.4,2.5 -3.7,2.9c0,0 -1.8,0.2 -1.6,-2c0,0 -0.1,-0.6 2.9,-3c0,0 4.1,-3.5 5,-4.9c0,0 0.2,-0.1 0.6,-0.9c0,0 0.6,-0.2 1.2,-0.6c0,0 0.4,-1 0.1,-1.5c-0.3,-0.6 0,-0.2 0,-0.2s-1.4,0.5 -2.8,2c0,0 -0.5,1.7 -1.1,1.1c0,-0.2 -2.9,-1.8 -2.3,-3.5" class="st0"/>
  <path id="svg_2" fill="#800406" d="m45.75001,17.35c0,0 -1.1,0.1 -1.4,0.7c0,0 0.6,1.9 -1.2,2.5c0,0 -1.5,0.3 -1.7,0.8c0,0 0.1,2.7 0.7,3c0,0 3.3,2.8 3.6,4.6c0,0 0.6,2.1 0.3,3.1c0,0 0.7,0.6 1.3,0c0,0 1,-2 1.8,-6.8c0,0 0.3,-1.2 1.7,-0.4l0.2,0.4c0,0 0.7,0.4 1.5,-0.2c0,0 0.3,-4.5 0.2,-5.7c0,0 0,-1.3 -0.6,-0.5c0,0 -0.2,0.7 -0.2,0.5c0,0 -0.6,0.3 -0.9,-0.1c0,0 -0.1,-6 -0.4,-6.7c0,0 -1.2,-2.4 -3.6,-3.9c0,0 -1.7,-0.5 -1.1,1.3c0,0 1.2,1.3 2,2.7c0,0 0.4,2.3 0.1,5c0,0 -0.4,3.2 -0.8,4.7c0,0 -0.2,0.4 -0.3,0.9l0,0.1c-0.2,0.5 -1.4,0.4 -1.6,-0.1c0,0 -0.2,-1.1 0.2,-2.9c0,0 0.5,-1.9 0.5,-2.8c0.1,0.3 0.1,-0.1 -0.3,-0.2" class="st0"/>
  <path id="svg_3" fill="#800406" d="m55.95001,8.45c0,0 -1.5,0.5 -1.7,1.1c0,0 -0.4,0.6 0.4,0.8c0,0 0.1,6.6 -0.3,8.3c0,0 -0.8,4.1 -0.7,5c0,0 -1.2,2.6 -0.9,4.2c0,0 0.3,3 1.7,4.4c0,0 1.7,1.6 2.4,-0.5c0,0 0.1,-1.4 -0.9,-3.1c0,0 -0.3,-1.5 -0.1,-3.2c0,0 0.1,-1.1 1,-0.6c0,0 0.2,0.3 0.3,0.3c0,0 0.5,0 0.7,-0.2l0.1,-0.4l0.3,-0.1l0,-4.3l0.5,-0.1c0,0 -0.2,-1.6 0,-2c0,0 0,-0.3 -0.8,-0.2c0,0 -0.3,-1 0,-1.3c0,0 0.2,0 0.3,-0.1c0,0 0.4,-3.8 -0.3,-5.7c0,0.1 -0.4,-1.8 -2,-2.3" class="st0"/>
  <path id="svg_4" fill="#800406" d="m61.15001,6.65l0,2.1l0.3,0l0.1,14.1l-0.3,0.2l-0.2,3l-0.3,0.1l-0.1,1.8c0,0 -0.6,0.4 -0.4,1.7c0,0 1.2,4.1 3.3,5.5c0,0 1.4,0.2 1.5,-1.2l-0.3,-0.6l-0.1,-3.6l-0.2,0l0.3,-9.2l0.3,0l0.5,-6.4c0,0 0.1,-4.1 -2.2,-7.2c-0.2,0.1 -1.6,-0.7 -2.2,-0.3" class="st0"/>
  <path id="svg_5" fill="#800406" d="m86.85001,4.15c0,0 1.4,10.8 1,14.7c0,0 -0.3,2.4 -1.4,2.9c0,0 -1.9,1.5 -4.4,1.2l-0.9,-0.9c0,0 -0.8,-0.4 -1.2,0.2c0,0 -0.5,0.7 -0.2,1c0,0 0.7,0.3 0.8,1c0,0 0.5,1.2 1.4,2c0,0 0.8,0.6 3.5,-0.6c0,0 1,-0.6 1.4,-0.7c0,0 0.2,2.1 -1,4c0,0.1 -0.1,0.1 -0.1,0.2c-1.3,2 -2.4,2.3 -4.2,2.7c0,0 -0.3,0.5 0.5,0.7c0,0 1.9,1.5 2.3,2c0,0 1.3,0.7 2.1,-0.2c0,0 2.1,-0.9 2.5,-5.5c0,0 0.5,-1.5 1.5,-0.8c0,0 1.8,2.9 3.4,4.2c0,0 1.3,0.6 2.5,1c0,0 3.3,-0.1 3.6,0.1c0,0 1.4,0.7 2.1,0.5c0,0 0.4,-1.3 -0.6,-2.3c0,0 -1.2,-0.9 -4.8,-1.6c0,0 -0.5,0.2 -1.4,-0.2c0,0 -1.1,-1.4 -1.7,-2.1c0,0 -1.7,-1.4 -2.6,-1.6c0,0 -0.9,-0.6 -0.1,-1.3c0,0 -0.1,-1.2 1,-2.4c0,0 2,-1.2 6.3,-2.2c0,0 0.4,-0.6 -0.4,-1.5c0,0 -1.6,-0.6 -2.3,-1.4c0,0 -1.5,-0.6 -1.5,-1c0,0 -0.8,0.1 -0.8,1.5c0,0 0.4,0.9 -0.8,1c0,0 -0.8,0.2 -0.8,-0.1c0,0 0.6,-6.9 0.3,-9.4c0,0 -0.4,-5.3 -3.6,-5.4c-0.1,0 -1.2,-0.4 -1.4,0.3" class="st0"/>
  <path id="svg_6" fill="#800406" d="m123.55001,3.75c0,0 -0.5,1.1 -0.5,2.2c0,0 0.1,0.7 -0.8,0.7c0,0 -0.7,0.1 -1,-0.2l0.3,0.3c0,0 -0.3,-0.6 -1.6,-0.5c0,0 0.1,0.4 -0.2,0.5l-0.5,-0.3c0,0 -0.1,1.2 0.2,1.4c0,0 0.5,-0.3 0.3,0.3c0,0 -0.2,3.3 0.1,4.2c0,0 0.6,0.1 0.6,0.3c0,0 0.1,-0.1 0.3,0.5c0,0 0.4,0.3 1.2,0.2c0,0 -0.1,-0.2 0.2,-0.5c0,0 0.2,-0.1 0.5,-0.3s0,-0.2 0,-0.2s-0.3,-0.2 -0.1,-0.6c0,0 -0.3,-0.2 0.2,-0.3c0,0 0.1,0.3 0.2,-0.5c0,0 -0.2,-1.6 0.1,-1.7c0,0 0,0.1 0.3,-0.6c0,0 0.5,0.1 0.5,-0.5c0,-0.1 0.1,-0.7 0.1,-0.7s0.8,-0.5 0.9,0c0,0 -0.1,0.9 0.3,0.8c0,0 0.2,0.5 0.2,0.8c0,0 0.3,0 0.4,0.5c0,0 0.9,0.5 1.8,0c0,0 1.1,-2.4 1.9,-3.1c0,0 0.6,0.1 0.8,-0.1c0,0 -0.4,-0.1 0.2,-0.4c0,0 0.8,-0.1 0.9,0.5c0,0 0.7,0.2 1.2,0c0,0 0.1,0.8 0,1c0,0 -3.7,3.2 -5.4,5.1c0,0 -0.3,0.4 -0.1,0.8c0,0 -6.2,1.5 -8.3,2.8c0,0 -1.7,0.8 -1.1,3c0,0 1.3,1.7 2,2.3c0,0 1,-1.5 3.2,-3.2c0,0 5.3,-3.5 8.7,-3.5c0,0 -0.1,0.5 1,0.5c0,0 0.4,2 -0.6,2.1c0,0 -0.9,0.6 -1.2,1c0,0 -0.3,0.2 -0.9,-0.1c0,0 -0.9,-0.7 -1.7,0c0,0 -1.3,0.3 -2.8,2c0,0 -0.9,3.2 2.4,1.8c0,0 2.6,-2.6 2,0.3c0,0 -0.4,1.5 -1,2.3c0,0 -1.8,0.5 -3.6,1.7c0,0 -1.6,0.8 -3.1,0.5c0,0 -1.7,-0.8 -2.4,0.9c0,0 -0.3,0.9 1.9,1.1c0,0 3.7,1.2 6.5,1.5c0,0 1.4,0.6 -0.5,1.2c0,0 -4.8,0.2 -6.2,0.5c0,0 -1.4,1.2 4,2.6c0,0 1.1,0.1 1.4,0.3c0,0 2.4,0.7 3.2,-0.7s0.1,-0.2 0.1,-0.2s1.7,-1.2 2.1,-3.9c0,0 2.4,-0.6 3.8,-1.6c0,0 1.2,-2.8 -4.8,-4c0,0 -0.3,-0.9 1,-2.5c0,0 1.1,-1.9 1.7,-2.7c0,0 1.4,-0.2 2.5,-1.5c0,0 1.7,-1.1 -0.1,-2.9c0,0 -0.1,-1 -1.5,-0.7c0,0 0.6,-1 -3.8,-1.3c0,0 -1.1,-0.5 1,-2.1c0,0 3.5,-2.4 4.8,-2.9c0,0 1.3,-1 -1.1,-2.7c0,0 -0.6,-0.1 -1,-0.1c0,0 0.3,-0.6 -1.7,-0.4c0,0 -1.4,-0.5 -1.6,-1.4c0,0 -0.8,-1 -1.3,0.1c0,0 -0.6,0.9 -1.2,1.2c0,0 -1.6,0.6 -2.3,-0.1c0,0 -0.8,-0.3 -1.4,-0.9c0.1,0 -0.7,-0.7 -1.6,0.1" class="st0"/>
  <path id="svg_7" fill="#800406" d="m23.95001,25.55c0,0 -1.9,0.2 -2.3,0c0,0 0,-13.3 0.2,-13.4c0,0 0.1,-0.9 1.4,-1.1c0,0 1.5,-0.5 1.2,1.3l0,0.1c-0.3,2 -0.8,2.2 -1.4,4.6c0,0 -0.1,1.8 0.6,2.4c0,0 1.8,1.3 1.3,4.8c0,0 0.1,1.4 -1,1.3m2.6,-5.1c-1.4,-1.3 -2.6,-3.4 -2.6,-3.4c3.1,-4.4 2.7,-6.3 2.7,-6.3c-0.4,-2.4 -2.9,-1.9 -2.9,-1.9c-1.5,1 -1.6,0.4 -1.6,0.4s-0.2,2.1 0,-0.2s0.4,-4 0.4,-4c-0.6,-1.2 -1.8,-0.3 -1.8,-0.3c-0.9,0.6 -0.9,6.5 -0.9,6.5c0.2,0.5 -0.3,0.8 -0.3,0.8c-2,2.1 -3.2,4.4 -3.2,4.4c0,2.1 1.7,0.7 1.7,0.7c0.2,-1.2 0.9,-1.7 0.9,-1.7c0.5,-0.4 0.5,0.4 0.5,0.4c-0.3,4 0,18.7 0,18.7c0.4,2 1.6,2.8 1.6,2.8c1.8,0.7 1.2,-3.2 1.2,-3.2c-0.6,-5 -0.4,-6.7 -0.4,-6.7c-0.1,-0.3 0.5,-0.2 0.5,-0.2c2.5,1.7 4.7,-2.3 4.7,-2.3c0.7,-2.6 -0.5,-4.5 -0.5,-4.5" class="st0"/>
 </g>
</svg>