<svg width="208" height="55" xmlns="http://www.w3.org/2000/svg" xml:space="preserve" version="1.1">

 <g>
  <title>Layer 1</title>
  <path id="svg_1" fill="#000000" d="m73.6,7.6c0,0 0.8,-0.1 1.7,0.2c0,0 0.5,0.3 1.7,0c0,0 3.4,-1.4 3.4,-1.6c0,0 1.3,-0.1 1.5,-0.6c0,0 0.2,-1.1 0.4,-1.6c0,0 0.4,-0.9 1.3,-0.2c0,0 0.9,1.2 1.1,2.2c0,0 0.2,1.1 -0.2,2c0,0 -3.6,2.4 -4.7,3.1c0,0 -1.3,1 0,1.8c0,0 0.7,0.5 1.1,0.8c0,0 0.7,0.8 -0.1,1.8c0,0 -1.1,0.5 -1.3,1.1c0,0 0,1.1 0.8,1.5c0,0 0.9,1.7 1,2c0,0 0.7,1.5 -0.3,2.1c0,0 -1,0.7 -1.2,1.2c0,0 -0.3,0.6 0.9,0.6c0,0 0.9,-0.4 1.9,-0.5c0,0 1.7,0.2 0.8,1.3s0,-0.2 0,-0.2s-1.3,1.8 -2.1,2.7c-0.8,0.9 0,-0.1 0,-0.1s-0.1,0.5 0.3,0.6c0,0 2.2,2.1 2.8,3.9c0,0 0.2,1.8 -1.9,0.8c0,0 -1.3,-2.4 -1.7,-3.2c0,0 -0.8,-0.5 -1.1,-0.1c0,0 -1.7,2.2 -1.9,3.5c0,0 -1.4,0.9 -1.1,-1c0,0 1.3,-2.1 3,-4c0,0 0.9,-0.7 0.7,-1.3c0,0 -0.5,-0.6 -1,0.1c0,0 -3.8,3.1 -6.9,5.5c0,0 -2,0.6 -2.8,-1.7c0,0 -0.6,-0.4 3.5,-2.4c0,0 2.1,-1.7 2.5,-3c0,0 0.8,-1.5 2,-3.2c0,0 0.5,-1.4 -0.9,-0.9c0,0 -0.7,0.5 -0.4,-2.6c0,0 -0.7,-0.4 -1.1,0c0,0 -2.4,2.5 -3.7,2.9c0,0 -1.8,0.2 -1.6,-2c0,0 -0.1,-0.6 2.9,-3c0,0 4.1,-3.5 5,-4.9c0,0 0.2,-0.1 0.6,-0.9c0,0 0.6,-0.2 1.2,-0.6c0,0 0.4,-1 0.1,-1.5c-0.3,-0.6 0,-0.2 0,-0.2s-1.4,0.5 -2.8,2c0,0 -0.5,1.7 -1.1,1.1c0,-0.2 -2.9,-1.8 -2.3,-3.5" class="st0"/>
  <path id="svg_2" fill="#000000" d="m114.5,20.1c0,0 -1.1,0.1 -1.4,0.7c0,0 0.6,1.9 -1.2,2.5c0,0 -1.5,0.3 -1.7,0.8c0,0 0.1,2.7 0.7,3c0,0 3.3,2.8 3.6,4.6c0,0 0.6,2.1 0.3,3.1c0,0 0.7,0.6 1.3,0c0,0 1,-2 1.8,-6.8c0,0 0.3,-1.2 1.7,-0.4l0.2,0.4c0,0 0.7,0.4 1.5,-0.2c0,0 0.3,-4.5 0.2,-5.7c0,0 0,-1.3 -0.6,-0.5c0,0 -0.2,0.7 -0.2,0.5c0,0 -0.6,0.3 -0.9,-0.1c0,0 -0.1,-6 -0.4,-6.7c0,0 -1.2,-2.4 -3.6,-3.9c0,0 -1.7,-0.5 -1.1,1.3c0,0 1.2,1.3 2,2.7c0,0 0.4,2.3 0.1,5c0,0 -0.4,3.2 -0.8,4.7c0,0 -0.2,0.4 -0.3,0.9l0,0.1c-0.2,0.5 -1.4,0.4 -1.6,-0.1c0,0 -0.2,-1.1 0.2,-2.9c0,0 0.5,-1.9 0.5,-2.8c0.1,0.3 0.1,-0.1 -0.3,-0.2" class="st0"/>
  <path id="svg_3" fill="#000000" d="m124.7,11.2c0,0 -1.5,0.5 -1.7,1.1c0,0 -0.4,0.6 0.4,0.8c0,0 0.1,6.6 -0.3,8.3c0,0 -0.8,4.1 -0.7,5c0,0 -1.2,2.6 -0.9,4.2c0,0 0.3,3 1.7,4.4c0,0 1.7,1.6 2.4,-0.5c0,0 0.1,-1.4 -0.9,-3.1c0,0 -0.3,-1.5 -0.1,-3.2c0,0 0.1,-1.1 1,-0.6c0,0 0.2,0.3 0.3,0.3c0,0 0.5,0 0.7,-0.2l0.1,-0.4l0.3,-0.1l0,-4.3l0.5,-0.1c0,0 -0.2,-1.6 0,-2c0,0 0,-0.3 -0.8,-0.2c0,0 -0.3,-1 0,-1.3c0,0 0.2,0 0.3,-0.1c0,0 0.4,-3.8 -0.3,-5.7c0,0.1 -0.4,-1.8 -2,-2.3" class="st0"/>
  <path id="svg_4" fill="#000000" d="m129.9,9.4l0,2.1l0.3,0l0.1,14.1l-0.3,0.2l-0.2,3l-0.3,0.1l-0.1,1.8c0,0 -0.6,0.4 -0.4,1.7c0,0 1.2,4.1 3.3,5.5c0,0 1.4,0.2 1.5,-1.2l-0.3,-0.6l-0.1,-3.6l-0.2,0l0.3,-9.2l0.3,0l0.5,-6.4c0,0 0.1,-4.1 -2.2,-7.2c-0.2,0.1 -1.6,-0.7 -2.2,-0.3" class="st0"/>
  <path id="svg_5" fill="#000000" d="m155.6,6.9c0,0 1.4,10.8 1,14.7c0,0 -0.3,2.4 -1.4,2.9c0,0 -1.9,1.5 -4.4,1.2l-0.9,-0.9c0,0 -0.8,-0.4 -1.2,0.2c0,0 -0.5,0.7 -0.2,1c0,0 0.7,0.3 0.8,1c0,0 0.5,1.2 1.4,2c0,0 0.8,0.6 3.5,-0.6c0,0 1,-0.6 1.4,-0.7c0,0 0.2,2.1 -1,4c0,0.1 -0.1,0.1 -0.1,0.2c-1.3,2 -2.4,2.3 -4.2,2.7c0,0 -0.3,0.5 0.5,0.7c0,0 1.9,1.5 2.3,2c0,0 1.3,0.7 2.1,-0.2c0,0 2.1,-0.9 2.5,-5.5c0,0 0.5,-1.5 1.5,-0.8c0,0 1.8,2.9 3.4,4.2c0,0 1.3,0.6 2.5,1c0,0 3.3,-0.1 3.6,0.1c0,0 1.4,0.7 2.1,0.5c0,0 0.4,-1.3 -0.6,-2.3c0,0 -1.2,-0.9 -4.8,-1.6c0,0 -0.5,0.2 -1.4,-0.2c0,0 -1.1,-1.4 -1.7,-2.1c0,0 -1.7,-1.4 -2.6,-1.6c0,0 -0.9,-0.6 -0.1,-1.3c0,0 -0.1,-1.2 1,-2.4c0,0 2,-1.2 6.3,-2.2c0,0 0.4,-0.6 -0.4,-1.5c0,0 -1.6,-0.6 -2.3,-1.4c0,0 -1.5,-0.6 -1.5,-1c0,0 -0.8,0.1 -0.8,1.5c0,0 0.4,0.9 -0.8,1c0,0 -0.8,0.2 -0.8,-0.1c0,0 0.6,-6.9 0.3,-9.4c0,0 -0.4,-5.3 -3.6,-5.4c-0.1,0 -1.2,-0.4 -1.4,0.3" class="st0"/>
  <path id="svg_6" fill="#000000" d="m192.3,6.5c0,0 -0.5,1.1 -0.5,2.2c0,0 0.1,0.7 -0.8,0.7c0,0 -0.7,0.1 -1,-0.2l0.3,0.3c0,0 -0.3,-0.6 -1.6,-0.5c0,0 0.1,0.4 -0.2,0.5l-0.5,-0.3c0,0 -0.1,1.2 0.2,1.4c0,0 0.5,-0.3 0.3,0.3c0,0 -0.2,3.3 0.1,4.2c0,0 0.6,0.1 0.6,0.3c0,0 0.1,-0.1 0.3,0.5c0,0 0.4,0.3 1.2,0.2c0,0 -0.1,-0.2 0.2,-0.5c0,0 0.2,-0.1 0.5,-0.3s0,-0.2 0,-0.2s-0.3,-0.2 -0.1,-0.6c0,0 -0.3,-0.2 0.2,-0.3c0,0 0.1,0.3 0.2,-0.5c0,0 -0.2,-1.6 0.1,-1.7c0,0 0,0.1 0.3,-0.6c0,0 0.5,0.1 0.5,-0.5c0,-0.1 0.1,-0.7 0.1,-0.7s0.8,-0.5 0.9,0c0,0 -0.1,0.9 0.3,0.8c0,0 0.2,0.5 0.2,0.8c0,0 0.3,0 0.4,0.5c0,0 0.9,0.5 1.8,0c0,0 1.1,-2.4 1.9,-3.1c0,0 0.6,0.1 0.8,-0.1c0,0 -0.4,-0.1 0.2,-0.4c0,0 0.8,-0.1 0.9,0.5c0,0 0.7,0.2 1.2,0c0,0 0.1,0.8 0,1c0,0 -3.7,3.2 -5.4,5.1c0,0 -0.3,0.4 -0.1,0.8c0,0 -6.2,1.5 -8.3,2.8c0,0 -1.7,0.8 -1.1,3c0,0 1.3,1.7 2,2.3c0,0 1,-1.5 3.2,-3.2c0,0 5.3,-3.5 8.7,-3.5c0,0 -0.1,0.5 1,0.5c0,0 0.4,2 -0.6,2.1c0,0 -0.9,0.6 -1.2,1c0,0 -0.3,0.2 -0.9,-0.1c0,0 -0.9,-0.7 -1.7,0c0,0 -1.3,0.3 -2.8,2c0,0 -0.9,3.2 2.4,1.8c0,0 2.6,-2.6 2,0.3c0,0 -0.4,1.5 -1,2.3c0,0 -1.8,0.5 -3.6,1.7c0,0 -1.6,0.8 -3.1,0.5c0,0 -1.7,-0.8 -2.4,0.9c0,0 -0.3,0.9 1.9,1.1c0,0 3.7,1.2 6.5,1.5c0,0 1.4,0.6 -0.5,1.2c0,0 -4.8,0.2 -6.2,0.5c0,0 -1.4,1.2 4,2.6c0,0 1.1,0.1 1.4,0.3c0,0 2.4,0.7 3.2,-0.7s0.1,-0.2 0.1,-0.2s1.7,-1.2 2.1,-3.9c0,0 2.4,-0.6 3.8,-1.6c0,0 1.2,-2.8 -4.8,-4c0,0 -0.3,-0.9 1,-2.5c0,0 1.1,-1.9 1.7,-2.7c0,0 1.4,-0.2 2.5,-1.5c0,0 1.7,-1.1 -0.1,-2.9c0,0 -0.1,-1 -1.5,-0.7c0,0 0.6,-1 -3.8,-1.3c0,0 -1.1,-0.5 1,-2.1c0,0 3.5,-2.4 4.8,-2.9c0,0 1.3,-1 -1.1,-2.7c0,0 -0.6,-0.1 -1,-0.1c0,0 0.3,-0.6 -1.7,-0.4c0,0 -1.4,-0.5 -1.6,-1.4c0,0 -0.8,-1 -1.3,0.1c0,0 -0.6,0.9 -1.2,1.2c0,0 -1.6,0.6 -2.3,-0.1c0,0 -0.8,-0.3 -1.4,-0.9c0.1,0 -0.7,-0.7 -1.6,0.1" class="st0"/>
  <path id="svg_7" fill="#000000" d="m92.7,28.3c0,0 -1.9,0.2 -2.3,0c0,0 0,-13.3 0.2,-13.4c0,0 0.1,-0.9 1.4,-1.1c0,0 1.5,-0.5 1.2,1.3l0,0.1c-0.3,2 -0.8,2.2 -1.4,4.6c0,0 -0.1,1.8 0.6,2.4c0,0 1.8,1.3 1.3,4.8c0,0 0.1,1.4 -1,1.3m2.6,-5.1c-1.4,-1.3 -2.6,-3.4 -2.6,-3.4c3.1,-4.4 2.7,-6.3 2.7,-6.3c-0.4,-2.4 -2.9,-1.9 -2.9,-1.9c-1.5,1 -1.6,0.4 -1.6,0.4s-0.2,2.1 0,-0.2s0.4,-4 0.4,-4c-0.6,-1.2 -1.8,-0.3 -1.8,-0.3c-0.9,0.6 -0.9,6.5 -0.9,6.5c0.2,0.5 -0.3,0.8 -0.3,0.8c-2,2.1 -3.2,4.4 -3.2,4.4c0,2.1 1.7,0.7 1.7,0.7c0.2,-1.2 0.9,-1.7 0.9,-1.7c0.5,-0.4 0.5,0.4 0.5,0.4c-0.3,4 0,18.7 0,18.7c0.4,2 1.6,2.8 1.6,2.8c1.8,0.7 1.2,-3.2 1.2,-3.2c-0.6,-5 -0.4,-6.7 -0.4,-6.7c-0.1,-0.3 0.5,-0.2 0.5,-0.2c2.5,1.7 4.7,-2.3 4.7,-2.3c0.7,-2.6 -0.5,-4.5 -0.5,-4.5" class="st0"/>
  <polygon id="svg_8" fill="#000000" points="69.9,50.9 69.9,50 73.9,45.2 70.3,45.2 70.3,44.3 75.4,44.3 75.4,45.2 71.3,49.9 75.5,49.9 75.5,50.9   " class="st0"/>
  <polygon id="svg_9" fill="#000000" points="81.7,50.9 81.7,48 78.4,48 78.4,50.9 77.3,50.9 77.3,44.3 78.4,44.3 78.4,47 81.7,47 81.7,44.3   82.8,44.3 82.8,50.9 " class="st0"/>
  <polygon id="svg_10" fill="#000000" points="85.1,50.9 85.1,44.3 90,44.3 90,45.2 86.2,45.2 86.2,47 89.8,47 89.8,47.9 86.2,47.9 86.2,49.9   90.1,49.9 90.1,50.9 " class="st0"/>
  <path id="svg_11" fill="#000000" d="m93.5,44.3c0,0 2.7,4.4 2.8,4.5c0.1,0.1 0.4,0.7 0.4,0.7l0,0c0,-0.2 0,-0.8 0,-1l0,-4.2l1.1,0l0,6.6l-1.2,0c0,0 -2.8,-4.5 -2.9,-4.6s-0.3,-0.6 -0.4,-0.7l0,0c0,0.2 0,0.9 0,1.1l0,4.2l-1.1,0l0,-6.6l1.3,0z" class="st0"/>
  <path id="svg_12" fill="#000000" d="m105.9,49.6c-0.4,0.8 -1.3,1.4 -2.9,1.4c-2,0 -3.2,-1.3 -3.2,-3.4c0,-2 1.3,-3.4 3.1,-3.4c1.6,0 2.6,0.7 3,1.7l-1.1,0.4c-0.3,-0.8 -1,-1.1 -1.9,-1.1c-1.1,0 -2,1 -2,2.4c0,1.6 1,2.4 2.1,2.4c0.9,0 1.5,-0.3 1.8,-0.8l0,-1.2l-2.1,0l0,-0.9l3.1,0l0.1,2.5l0,0z" class="st0"/>
  <polygon id="svg_13" fill="#000000" points="107.5,50.9 107.5,50 111.6,45.2 107.9,45.2 107.9,44.3 113,44.3 113,45.2 108.9,49.9 113.1,49.9   113.1,50.9 " class="st0"/>
  <polygon id="svg_14" fill="#000000" points="119.3,50.9 119.3,48 116,48 116,50.9 114.9,50.9 114.9,44.3 116,44.3 116,47 119.3,47 119.3,44.3   120.4,44.3 120.4,50.9 " class="st0"/>
  <path id="svg_15" fill="#000000" d="m127.6,47.6c0,-1.5 -0.8,-2.4 -2,-2.4c-1.1,0 -2,1 -2,2.4c0,1.6 0.9,2.4 2,2.4c1.2,0 2,-0.9 2,-2.4m1.2,0c0,2 -1.3,3.4 -3.2,3.4c-1.9,0 -3.2,-1.3 -3.2,-3.4c0,-2 1.2,-3.4 3.2,-3.4c2,0 3.2,1.5 3.2,3.4" class="st0"/>
  <path id="svg_16" fill="#000000" d="m130.7,44.3l1.1,0l0,3.8c0,1.4 0.7,2 1.7,2c1.1,0 1.7,-0.6 1.7,-2l0,-3.7l1.1,0l0,3.6c0,1.9 -0.9,3 -2.8,3c-1.8,0 -2.8,-0.9 -2.8,-2.9l0,-3.8z" class="st0"/>
  <path id="svg_17" fill="#000000" d="m141.6,44.3l1.1,0l0,3.8c0,1.4 0.7,2 1.7,2c1.1,0 1.7,-0.6 1.7,-2l0,-3.7l1.1,0l0,3.6c0,1.9 -0.9,3 -2.8,3c-1.8,0 -2.8,-0.9 -2.8,-2.9l0,-3.8z" class="st0"/>
  <path id="svg_18" fill="#000000" d="m150.8,44.3c0,0 2.7,4.4 2.8,4.5s0.4,0.7 0.4,0.7l0,0c0,-0.2 0,-0.8 0,-1l0,-4.2l1.1,0l0,6.6l-1.2,0c0,0 -2.8,-4.5 -2.9,-4.6c-0.1,-0.1 -0.3,-0.6 -0.4,-0.7l0,0c0,0.2 0,0.9 0,1.1l0,4.2l-1.1,0l0,-6.6l1.3,0z" class="st0"/>
  <rect id="svg_19" fill="#000000" height="6.6" width="1.1" class="st0" y="44.3" x="157.4"/>
  <path id="svg_20" fill="#000000" d="m163.9,50.9l-1.3,0l-2.6,-6.6l1.2,0l1.8,4.9c0.1,0.2 0.2,0.6 0.2,0.7l0,0c0,-0.1 0.2,-0.5 0.2,-0.7l1.7,-4.9l1.2,0l-2.4,6.6z" class="st0"/>
  <polygon id="svg_21" fill="#000000" points="168.1,50.9 168.1,44.3 173,44.3 173,45.2 169.2,45.2 169.2,47 172.8,47 172.8,47.9 169.2,47.9   169.2,49.9 173.1,49.9 173.1,50.9 " class="st0"/>
  <path id="svg_22" fill="#000000" d="m176.3,47.3l1.7,0c1,0 1.4,-0.3 1.4,-1s-0.4,-1 -1.4,-1l-1.7,0l0,2zm3.2,3.6l-1.9,-2.7l-1.3,0l0,2.7l-1.1,0l0,-6.6l3,0c1.6,0 2.4,0.8 2.4,1.9c0,1.1 -0.5,1.7 -1.8,1.9l2.2,2.8c0,0 -1.5,0 -1.5,0z" class="st0"/>
  <path id="svg_23" fill="#000000" d="m183.4,48.6c0.2,1.1 0.7,1.5 1.7,1.5c0.9,0 1.4,-0.5 1.4,-1s-0.2,-0.7 -1.1,-1c-0.2,-0.1 -0.6,-0.2 -0.9,-0.2c-1.5,-0.4 -1.9,-0.9 -1.9,-1.8c0,-1 0.9,-1.8 2.4,-1.8c1.6,0 2.4,0.6 2.6,1.8l-1.1,0.2c-0.1,-0.7 -0.6,-1.1 -1.5,-1.1c-0.8,0 -1.2,0.4 -1.2,0.9s0.3,0.7 1.4,1c0.3,0.1 0.8,0.2 1.1,0.3c1.1,0.4 1.5,1.1 1.5,1.8c0,1.2 -0.9,2 -2.5,2c-1.7,0 -2.6,-0.7 -2.9,-2.2l1,-0.4z" class="st0"/>
  <rect id="svg_24" fill="#000000" height="6.6" width="1.1" class="st0" y="44.3" x="189.7"/>
  <polygon id="svg_25" fill="#000000" points="195.9,45.2 195.9,50.9 194.8,50.9 194.8,45.2 192.6,45.2 192.6,44.3 198.1,44.3 198.1,45.2 " class="st0"/>
  <path id="svg_26" fill="#000000" d="m200.4,44.3c0,0 1.5,2.4 1.6,2.5s0.3,0.4 0.3,0.5l0,0c0.1,-0.1 0.2,-0.4 0.3,-0.5c0.1,-0.2 1.6,-2.5 1.6,-2.5l1.3,0l-2.7,3.9l0,2.7l-1.1,0l0,-2.7l-2.6,-3.9l1.3,0z" class="st0"/>
  <path id="svg_27" fill="#000000" d="m20.5,30.5l-4.1,9.2l8.9,0l3.6,-8.5l3.6,8.5l8.9,0l-4.7,-10.2l0,0c-9.3,2.4 -15.5,1.3 -16.2,1" class="st0"/>
  <path id="svg_28" fill="#000000" d="m31,19.9c0.5,-0.1 1,-0.1 1.4,-0.2l-3.7,-8l-4,8.9c2.5,-0.3 4.8,-0.5 6.3,-0.7" class="st0"/>
  <path id="svg_29" fill="#000000" d="m22.6,48.4c0,0 -0.2,0 -0.3,0.1c0,0 0,0.3 -0.3,0.4c0,0 -0.3,0 -0.3,0.1c0,0 -0.1,0.5 0,0.5c0,0 0.4,0.6 0.4,0.9c0,0 0,0.4 -0.1,0.5c0,0 0.1,0.1 0.2,0.1c0,0 0.2,-0.3 0.6,-1.1c0,0 0.1,-0.2 0.3,0l0,0.1c0,0 0.1,0.1 0.3,0c0,0 0.2,-0.8 0.3,-1c0,0 0,-0.2 -0.1,-0.1l-0.1,0.1c0,0 -0.1,0 -0.1,-0.1c0,0 0.2,-1 0.2,-1.2c0,0 -0.1,-0.5 -0.5,-0.8c0,0 -0.3,-0.1 -0.3,0.2c0,0 0.1,0.3 0.2,0.5c0,0 0,0.4 -0.2,0.9c0,0 -0.2,0.5 -0.3,0.8c0,0 0,0.1 -0.1,0.1l0,0c0,0.1 -0.3,0 -0.3,-0.1c0,0 0,-0.2 0.1,-0.5c0.2,0.1 0.4,-0.2 0.4,-0.4c0,0.1 0.1,0 0,0" class="st0"/>
  <path id="svg_30" fill="#000000" d="m24.7,47.3c0,0 -0.3,0 -0.3,0.1c0,0 -0.1,0.1 0,0.2c0,0 -0.3,1.1 -0.4,1.4c0,0 -0.3,0.7 -0.3,0.8c0,0 -0.3,0.4 -0.3,0.7c0,0 -0.1,0.5 0.1,0.8c0,0 0.2,0.3 0.4,0c0,0 0.1,-0.2 0,-0.6c0,0 0,-0.3 0.1,-0.6c0,0 0.1,-0.2 0.2,-0.1l0,0.1l0.1,0l0,-0.1l0.1,0l0.2,-0.7l0.1,0c0,0 0,-0.3 0.1,-0.3c0,0 0,-0.1 -0.1,-0.1l0,-0.2c0,0 0,0 0.1,0c0,0 0.2,-0.6 0.2,-1c-0.1,0.1 0,-0.3 -0.3,-0.4" class="st0"/>
  <path id="svg_31" fill="#000000" d="m25.7,47.2l-0.1,0.4l0,0l-0.5,2.4l-0.1,0l-0.2,0.5l-0.1,0l-0.1,0.3c0,0 -0.1,0 -0.1,0.3c0,0 0,0.7 0.3,1.1c0,0 0.2,0.1 0.3,-0.1l0,-0.1l0.1,-0.6l0,0l0.4,-1.5l0.1,0l0.3,-1.1c0,0 0.2,-0.7 -0.1,-1.3c0.1,-0.2 -0.1,-0.4 -0.2,-0.3" class="st0"/>
  <path id="svg_32" fill="#000000" d="m33.1,46.8c0,0 0.6,1.8 0.7,2.5c0,0 0,0.4 -0.1,0.5c0,0 -0.3,0.3 -0.7,0.4l-0.2,-0.1c0,0 -0.1,0 -0.2,0.1c0,0 -0.1,0.1 0,0.2c0,0 0.1,0 0.2,0.1c0,0 0.1,0.2 0.3,0.3c0,0 0.2,0.1 0.6,-0.2c0,0 0.2,-0.1 0.2,-0.2c0,0 0.1,0.3 0,0.7l0,0c-0.2,0.4 -0.3,0.5 -0.6,0.6c0,0 0,0.1 0.1,0.1c0,0 0.4,0.2 0.5,0.3c0,0 0.2,0.1 0.4,-0.1c0,0 0.3,-0.2 0.2,-1c0,0 0,-0.3 0.2,-0.2c0,0 0.4,0.4 0.7,0.6c0,0 0.2,0.1 0.5,0.1l0.6,-0.1c0,0 0.3,0.1 0.4,0c0,0 0,-0.2 -0.2,-0.4c0,0 -0.2,-0.1 -0.9,-0.1c0,0 -0.1,0 -0.3,0c0,0 -0.2,-0.2 -0.4,-0.3c0,0 -0.3,-0.2 -0.5,-0.2c0,0 -0.2,-0.1 -0.1,-0.2c0,0 -0.1,-0.2 0.1,-0.4c0,0 0.3,-0.3 1,-0.6c0,0 0,-0.1 -0.1,-0.2c0,0 -0.3,0 -0.4,-0.2l-0.3,-0.1c0,0 -0.1,0 -0.1,0.3c0,0 0.1,0.1 -0.1,0.2c0,0 -0.1,0.1 -0.1,0c0,0 -0.1,-1.2 -0.3,-1.6c0,0 -0.3,-0.9 -0.8,-0.8c0,-0.1 -0.2,-0.1 -0.3,0" class="st0"/>
  <path id="svg_33" fill="#000000" d="m41,42.9c0,0 0,0.2 0.1,0.4c0,0 0.1,0.1 -0.1,0.2c0,0 -0.1,0.1 -0.2,0c-0.1,0 0.1,0 0.1,0s-0.1,-0.1 -0.3,0.1c0,0 0.1,0.1 0,0.1l-0.1,0c0,0 0.1,0.2 0.2,0.2c0,0 0,-0.1 0.1,0c0,0 0.3,0.5 0.4,0.6l0.1,0c0,0 0,0 0.1,0c0,0 0.1,0 0.2,-0.1c0,0 0,0 0,-0.1c0,0 0,0 0.1,-0.1c0,-0.1 0,0 0,0s-0.1,0 -0.1,-0.1c0,0 -0.1,0 0,-0.1c0,0 0,0 0,-0.1c0,0 -0.2,-0.2 -0.1,-0.3c0,0 0,0 0,-0.1c0,0 0.1,0 0,-0.1l0,-0.1l0.1,-0.1l0.1,0.1l0.1,0.1c0,0 0,0 0.1,0c0,0 0.2,0 0.3,-0.2c0,0 0,-0.5 0,-0.6c0,0 0.1,0 0.1,-0.1c0,0 -0.1,0 0,-0.1c0,0 0.1,-0.1 0.2,0c0,0 0.1,0 0.2,-0.1l0.1,0.1c0,0 -0.3,0.8 -0.4,1.2c0,0 0,0.1 0.1,0.1c0,0 -0.8,0.7 -1,1.1c0,0 -0.2,0.3 0.1,0.6c0,0 0.3,0.1 0.5,0.2c0,0 0,-0.3 0.2,-0.8c0,0 0.5,-1 1,-1.3c0,0 0,0.1 0.2,0c0,0 0.2,0.3 0.1,0.4c0,0 -0.1,0.2 -0.1,0.3c0,0 0,0.1 -0.2,0.1c0,0 -0.2,0 -0.3,0.1c0,0 -0.2,0.2 -0.3,0.5c0,0 0.1,0.6 0.5,0.1c0,0 0.2,-0.6 0.3,-0.1c0,0 0.1,0.3 0,0.4c0,0 -0.2,0.2 -0.4,0.6c0,0 -0.2,0.3 -0.4,0.3c0,0 -0.3,0 -0.3,0.3c0,0 0,0.2 0.4,0c0,0 0.7,-0.1 1.1,-0.3c0,0 0.3,0 0,0.2c0,0 -0.7,0.4 -0.9,0.6c0,0 -0.1,0.3 0.8,0.1l0.2,-0.1c0,0 0.4,-0.1 0.4,-0.4c0,-0.3 0,0 0,0s0.2,-0.3 0,-0.8c0,0 0.3,-0.3 0.5,-0.6c0,0 -0.1,-0.5 -1.1,-0.2c0,0 -0.1,-0.1 -0.1,-0.5c0,0 0,-0.4 0,-0.6c0,0 0.2,-0.2 0.3,-0.4c0,0 0.2,-0.3 -0.3,-0.4c0,0 -0.1,-0.1 -0.3,0c0,0 0,-0.2 -0.7,0.1c0,0 -0.2,0 0,-0.4c0,0 0.3,-0.7 0.5,-0.8c0,0 0.1,-0.3 -0.4,-0.3c0,0 -0.1,0 -0.2,0.1c0,0 0,-0.1 -0.3,0.1c0,0 -0.3,0 -0.4,-0.1c0,0 -0.2,-0.1 -0.2,0.1c0,0 0,0.2 -0.1,0.3c0,0 -0.2,0.2 -0.4,0.2c0,0 -0.1,0 -0.3,0c0.3,0.4 0.1,0.3 0.1,0.5" class="st0"/>
  <path id="svg_34" fill="#000000" d="m15.3,41.7c0,0 0.1,0.1 0.2,0.2c0,0 0,0.1 0.2,0.2l0.6,0.2c0,0 0.2,0.1 0.3,0.1c0,0 0.2,-0.1 0.2,-0.2c0,0 0.2,-0.1 0.2,0.1c0,0 0,0.3 -0.1,0.4c0,0 -0.1,0.2 -0.3,0.3c0,0 -0.8,-0.1 -1,-0.1c0,0 -0.3,0 -0.2,0.2c0,0 0,0.1 0.1,0.2c0,0 0,0.2 -0.2,0.2c0,0 -0.2,0 -0.3,0c0,0 -0.1,0.1 -0.1,0.3c0,0 -0.1,0.3 -0.1,0.4c0,0 -0.1,0.3 -0.3,0.3c0,0 -0.2,0 -0.3,0c0,0 -0.1,0.1 0.1,0.2c0,0 0.2,0 0.3,0.1c0,0 0.2,0.2 0,0.3s0,0 0,0s-0.4,0.1 -0.6,0.1c-0.2,0 0,0 0,0s-0.1,0.1 0,0.1c0,0 0.1,0.5 0,0.8c0,0 -0.2,0.3 -0.4,-0.1c0,0 0.1,-0.5 0.1,-0.6c0,0 0,-0.2 -0.1,-0.1c0,0 -0.5,0.1 -0.6,0.3c0,0 -0.3,0 0,-0.3c0,0 0.4,-0.1 0.9,-0.2c0,0 0.2,0 0.2,-0.1c0,0 0,-0.1 -0.1,-0.1c0,0 -0.9,0 -1.5,0c0,0 -0.3,-0.1 -0.2,-0.5c0,0 0,-0.1 0.7,0.1c0,0 0.5,0 0.7,-0.1c0,0 0.3,-0.1 0.6,-0.2c0,0 0.2,-0.1 0,-0.2c0,0 -0.2,0 0.2,-0.4c0,0 -0.1,-0.1 -0.2,-0.1c0,0 -0.6,0.1 -0.8,0c0,0 -0.3,-0.2 0,-0.5c0,0 0.1,-0.1 0.7,-0.1c0,0 0.9,0 1.2,-0.1c0,0 0,0 0.2,-0.1c0,0 0.1,0 0.2,0c0,0 0.2,-0.1 0.2,-0.2c0,-0.1 0,0 0,0s-0.2,-0.1 -0.6,0c0,0 -0.3,0.2 -0.3,0c0.1,-0.1 -0.1,-0.6 0.2,-0.8" class="st0"/>
  <path id="svg_35" fill="#000000" d="m16.5,46.2c0,-0.3 0,-0.8 0,-0.8c0.9,-0.2 1.1,-0.6 1.1,-0.6c0.2,-0.4 -0.2,-0.6 -0.2,-0.6c-0.3,0 -0.3,-0.1 -0.3,-0.1s-0.3,0.3 0,0s0.5,-0.5 0.5,-0.5c0.1,-0.2 -0.2,-0.2 -0.2,-0.2c-0.2,0 -0.8,0.8 -0.8,0.8c0,0.1 -0.1,0.1 -0.1,0.1c-0.5,0.1 -0.9,0.2 -0.9,0.2c-0.2,0.3 0.2,0.3 0.2,0.3c0.2,-0.1 0.3,-0.1 0.3,-0.1c0.1,0 0,0.1 0,0.1c-0.5,0.5 -2.1,2.5 -2.1,2.5c-0.2,0.3 -0.1,0.6 -0.1,0.6c0.2,0.3 0.5,-0.3 0.5,-0.3c0.5,-0.7 0.7,-0.9 0.7,-0.9c0,-0.1 0.1,0 0.1,0c0.2,0.5 0.9,0.2 0.9,0.2c0.4,-0.3 0.4,-0.7 0.4,-0.7m-0.9,0.4l-0.3,-0.2l1.5,-1.8c0,0 0.1,-0.1 0.3,0c0,0 0.3,0.1 0,0.3l0,0c-0.3,0.2 -0.4,0.2 -0.7,0.5c0,0 -0.2,0.2 -0.2,0.4c0,0 0.1,0.4 -0.3,0.8c0,0 -0.2,0.2 -0.3,0" class="st0"/>
  <polygon id="svg_36" fill="#000000" points="9.5,33.4 8.9,33.5 6.1,32 6.6,33.9 6,34 5.3,31.2 5.9,31.1 8.7,32.6 8.2,30.5 8.8,30.4 " class="st0"/>
  <polygon id="svg_37" fill="#000000" points="8.6,26.9 7.1,27 7.2,28.6 8.6,28.6 8.7,29.3 5.1,29.4 5.1,28.6 6.5,28.6 6.5,27 5.1,27 5,26.3   8.6,26.2 " class="st0"/>
  <polygon id="svg_38" fill="#000000" points="8.7,24.9 5.2,24.2 5.7,21.6 6.3,21.7 5.9,23.6 6.8,23.8 7.1,22 7.7,22.1 7.3,23.9 8.2,24 8.6,22.1   9.2,22.2 " class="st0"/>
  <path id="svg_39" fill="#000000" d="m10.4,18.8c0,0 -2.6,0.5 -2.7,0.5s-0.3,0 -0.4,0l0,0c0.1,0 0.4,0.1 0.6,0.2l1.9,0.8l-0.2,0.7l-3.3,-1.3l0.3,-0.7c0,0 2.5,-0.4 2.6,-0.4s0.3,0 0.4,0l0,0c-0.1,0 -0.4,-0.1 -0.5,-0.2l-1.9,-0.8l0.3,-0.6l3.3,1.3l-0.4,0.5z" class="st0"/>
  <path id="svg_40" fill="#000000" d="m12.6,13.8c0.3,0.4 0.2,1 -0.3,1.8c-0.6,0.9 -1.6,1 -2.5,0.4s-1.1,-1.6 -0.5,-2.4c0.5,-0.7 1.1,-0.9 1.7,-0.8l-0.2,0.7c-0.4,-0.1 -0.7,0.1 -1,0.5c-0.3,0.5 -0.1,1.1 0.4,1.4c0.7,0.5 1.3,0.3 1.6,-0.1c0.3,-0.4 0.3,-0.7 0.2,-0.9l-0.3,-0.4l-0.7,0.8l-0.5,-0.3l1,-1.4l1.1,0.7z" class="st0"/>
  <polygon id="svg_41" fill="#000000" points="13.9,13.5 13.5,13.1 13.4,9.9 12,11.2 11.6,10.8 13.7,8.8 14.1,9.3 14.1,12.4 15.7,10.9 16.2,11.4 " class="st0"/>
  <polygon id="svg_42" fill="#000000" points="19,9.5 18.2,8.2 16.9,9.1 17.6,10.3 17,10.7 15.1,7.7 15.8,7.3 16.5,8.5 17.9,7.7 17.1,6.5 17.8,6.1   19.6,9.1 " class="st0"/>
  <path id="svg_43" fill="#000000" d="m23.5,5.7c0.4,1 -0.1,2 -1.1,2.3s-1.9,-0.1 -2.2,-1.2c-0.3,-1 0,-1.9 1.1,-2.3c0.9,-0.3 1.8,0.3 2.2,1.2m-0.8,0.3c-0.2,-0.7 -0.7,-1 -1.3,-0.8c-0.5,0.2 -0.8,0.8 -0.5,1.5s0.8,1 1.3,0.8c0.6,-0.3 0.7,-0.8 0.5,-1.5" class="st0"/>
  <path id="svg_44" fill="#000000" d="m24.8,3.6l0.7,-0.1l0.2,2c0.1,0.7 0.5,0.9 0.9,0.9c0.5,-0.1 0.8,-0.4 0.7,-1l-0.2,-2l0.7,-0.1l0.2,2c0.1,1 -0.3,1.7 -1.4,1.8c-1,0.1 -1.6,-0.4 -1.7,-1.4l-0.1,-2.1z" class="st0"/>
  <path id="svg_45" fill="#000000" d="m33.3,3.7l0.7,0.1l-0.5,2c-0.2,0.7 0.1,1 0.6,1.1s0.9,-0.1 1,-0.7l0.5,-2l0.7,0.2l-0.5,1.9c-0.2,1 -0.9,1.4 -1.9,1.2c-1,-0.2 -1.4,-0.9 -1.1,-1.9l0.5,-1.9z" class="st0"/>
  <path id="svg_46" fill="#000000" d="m38.8,9.4c0,0 -0.3,-2.6 -0.3,-2.7s0,-0.3 0,-0.4l0,0c-0.1,0.1 -0.2,0.4 -0.3,0.6l-0.9,1.8l-0.6,-0.3l1.6,-3.2l0.7,0.4c0,0 0.2,2.6 0.3,2.6c0,0.1 0,0.3 0,0.4l0,0c0,-0.1 0.2,-0.4 0.2,-0.5l0.9,-1.9l0.6,0.3l-1.6,3.2l-0.6,-0.3z" class="st0"/>
  <rect id="svg_47" fill="#000000" height="0.7" width="3.6" class="st0" transform="matrix(0.5774 -0.8165 0.8165 0.5774 10.2519 38.02)" y="8.8" x="40.1"/>
  <path id="svg_48" fill="#000000" d="m43.4,12.8l-0.6,-0.6l1.5,-3.5l0.6,0.6l-1.1,2.4c-0.1,0.1 -0.1,0.3 -0.2,0.3l0,0c0.1,0 0.2,-0.1 0.3,-0.2l2.3,-1.2l0.6,0.5l-3.4,1.7z" class="st0"/>
  <polygon id="svg_49" fill="#000000" points="45,14.5 47.9,12.4 49.4,14.6 48.9,15 47.8,13.4 47.1,13.8 48.2,15.3 47.7,15.7 46.6,14.2 45.9,14.7   47,16.4 46.5,16.7 " class="st0"/>
  <path id="svg_50" fill="#000000" d="m48,19.8l0.9,-1.4l-0.2,-0.5l-1.3,0.6l-0.3,-0.7l3.2,-1.4l0.7,1.5c0.4,0.8 0.1,1.4 -0.4,1.6s-1,0.2 -1.3,-0.4l-0.9,1.6l-0.4,-0.9zm1.2,-2.2l0.3,0.7c0.2,0.4 0.4,0.6 0.7,0.4c0.3,-0.1 0.4,-0.4 0.2,-0.8l-0.3,-0.7l-0.9,0.4z" class="st0"/>
  <path id="svg_51" fill="#000000" d="m50,21.8c-0.5,0.2 -0.7,0.5 -0.6,1c0.1,0.4 0.3,0.6 0.6,0.5c0.2,0 0.3,-0.2 0.4,-0.5c0,-0.2 0,-0.4 0,-0.6c0,-0.7 0.3,-1.1 0.8,-1.2s1,0.3 1.2,1.1c0.2,0.9 0,1.3 -0.7,1.6l-0.2,-0.7c0.3,-0.1 0.5,-0.4 0.4,-0.8s-0.3,-0.5 -0.5,-0.5s-0.3,0.2 -0.3,0.8c0,0.3 0,0.6 -0.1,0.8c-0.1,0.5 -0.4,0.8 -0.8,0.8c-0.6,0.1 -1.1,-0.2 -1.3,-1.1s0.1,-1.5 0.8,-1.8l0.3,0.6z" class="st0"/>
  <rect id="svg_52" fill="#000000" height="0.7" width="3.6" class="st0" transform="matrix(0.9971 -7.583053e-02 7.583053e-02 0.9971 -1.7897 3.9559)" y="25.2" x="49.4"/>
  <polygon id="svg_53" fill="#000000" points="52.3,29 49.4,28.8 49.4,28.1 52.4,28.3 52.4,27.1 53,27.1 52.9,30.2 52.3,30.2 " class="st0"/>
  <path id="svg_54" fill="#000000" d="m52.5,32.3c0,0 -1.3,0.4 -1.4,0.4c-0.1,0 -0.3,0.1 -0.4,0.1l0,0c0.1,0.1 0.2,0.2 0.3,0.3s1,1 1,1l-0.2,0.9l-1.7,-1.9l-1.4,-0.4l0.2,-0.7l1.4,0.4l2.4,-0.8l-0.2,0.7z" class="st0"/>
  <path id="svg_55" fill="#000000" d="m10,27.2c0,-10.5 8.5,-19 19,-19s19,8.5 19,19s-8.5,19 -19,19s-19,-8.5 -19,-19m5.9,-13c-3.3,3.3 -5.4,8 -5.4,13.1s2.1,9.7 5.4,13.1c3.3,3.3 8,5.4 13.1,5.4s9.7,-2.1 13.1,-5.4c3.3,-3.3 5.4,-8 5.4,-13.1s-2.1,-9.7 -5.4,-13.1c-3.3,-3.3 -8,-5.4 -13.1,-5.4c-5.1,0 -9.8,2 -13.1,5.4" class="st0"/>
  <path id="svg_56" fill="#000000" d="m2.1,27.2c0,-14.8 12,-26.9 26.9,-26.9c14.8,0 26.9,12 26.9,26.9s-12.1,26.9 -26.9,26.9c-14.9,0 -26.9,-12 -26.9,-26.9m8.6,-18.2c-4.7,4.7 -7.6,11.1 -7.6,18.2s2.9,13.6 7.6,18.2c4.7,4.7 11.1,7.6 18.3,7.6c7.1,0 13.6,-2.9 18.2,-7.6c4.7,-4.7 7.6,-11.1 7.6,-18.2s-2.9,-13.5 -7.6,-18.2s-11.1,-7.5 -18.2,-7.5c-7.2,0 -13.6,2.8 -18.3,7.5" class="st0"/>
  <path id="svg_57" fill="#000000" d="m15.5,30.2c0.8,-2.1 2.7,-3.3 4.7,-4.1c2.3,-1 4.7,-1.6 7.1,-2.2c0.6,-0.2 1.3,-0.3 1.9,-0.4c-1.1,0.4 -2.3,0.9 -3.4,1.4c-0.9,0.4 -1.8,0.9 -2.6,1.4c-0.6,0.4 -1.4,0.9 -1.7,1.6c-0.2,0.3 -0.3,0.7 -0.1,1.1c0.1,0.4 0.5,0.6 0.9,0.7s0.8,0.2 1.2,0.2c0.4,0.1 0.8,0.1 1.3,0.1c0.2,0 0.5,0 0.7,0c0.8,0 1.5,0 2.3,0c0.6,0 1.1,-0.1 1.7,-0.1c0.2,0 0.3,0 0.5,-0.1c1.2,-0.1 2.5,-0.4 3.7,-0.6c2,-0.5 4.1,-0.8 6,-1.5c0.9,-0.3 1.7,-0.7 2.6,-1.1c0.8,-0.4 1.7,-0.8 2,-1.7c0.4,-0.8 0.1,-1.7 -0.3,-2.4c-0.5,-0.9 -1.3,-1.9 -2.1,-2.6c0,0.3 -0.1,0.5 -0.2,0.8c-0.2,0.4 -0.5,0.8 -0.8,1.1c-0.5,0.6 -1.1,1.1 -1.8,1.5c-1.1,0.7 -2.3,1.2 -3.5,1.6c-1.8,0.6 -3.6,1.1 -5.4,1.6c-0.2,0.1 -0.5,0.1 -0.7,0.2c0.1,0 0.1,-0.1 0.2,-0.1c0.2,-0.1 0.4,-0.2 0.6,-0.3c0.3,-0.1 0.6,-0.3 0.8,-0.4c0.3,-0.2 0.7,-0.4 1,-0.6c0.4,-0.2 0.7,-0.4 1.1,-0.7c0.4,-0.2 0.7,-0.5 1.1,-0.7c0.3,-0.2 0.7,-0.5 1,-0.8c0.3,-0.2 0.6,-0.5 0.8,-0.8c0.4,-0.5 0.8,-1.2 0.6,-1.8c-0.1,-0.2 -0.2,-0.3 -0.3,-0.4c-0.8,-0.6 -2.2,-0.5 -3.2,-0.5c-3.5,0.2 -7,0.7 -10.4,1.3c-0.4,0.1 -0.7,0.1 -1.1,0.2s-0.7,0.2 -1.1,0.2c-0.4,0.1 -0.7,0.2 -1.1,0.3c-0.3,0.1 -0.7,0.2 -1,0.3c-0.3,0.1 -0.6,0.2 -1,0.3c-0.3,0.1 -0.6,0.2 -0.9,0.4c-0.3,0.1 -0.5,0.3 -0.8,0.4c-0.2,0.1 -0.5,0.3 -0.7,0.5s-0.4,0.3 -0.6,0.5c-0.2,0.2 -0.3,0.4 -0.4,0.6c-0.1,0.2 -0.2,0.4 -0.3,0.6c-0.4,1 0,2 0.6,2.9c0.3,0.4 0.5,0.8 0.8,1.3c-0.1,0.2 0.3,0.7 0.3,0.8" class="st0"/>
 </g>
</svg>